<?xml version="1.0" encoding="UTF-8"?>
<svg width="60px" height="60px" viewBox="0 0 60 60" version="1.1" xmlns="http://www.w3.org/2000/svg" xmlns:xlink="http://www.w3.org/1999/xlink">
    <!-- Generator: Sketch 61.1 (89650) - https://sketch.com -->
    <title>i01w</title>
    <desc>Created with Sketch.</desc>
    <g id="i01w" stroke="none" stroke-width="1" fill="none" fill-rule="evenodd">
        <g id="Group-10-Copy-6" transform="translate(1.000000, 1.000000)" fill="#FFFFFF" stroke="#82A1A7">
            <path d="M50.01222,42.3503055 C49.7331976,42.3503055 49.4582485,42.3665988 49.185336,42.3930754 L46.0285132,32.4663951 C47.2545825,31.9124236 48.3625255,31.1486762 49.305499,30.2260692 C51.3625255,28.209776 52.6334012,25.4276986 52.6334012,22.3625255 C52.6334012,16.2240326 47.5356415,11.2301426 41.2708758,11.2301426 C38.1384929,11.2301426 35.299389,12.4765784 33.2423625,14.4887984 C31.1812627,16.5071283 29.9063136,19.2912424 29.9063136,22.3625255 C29.9063136,23.7291242 30.1588595,25.0427699 30.6232179,26.2545825 L25.0386965,29.3014257 C22.9205703,26.0386965 19.3930754,23.7352342 15.3014257,23.2260692 L15.3014257,19.1812627 C17.3217923,18.8391039 19.1323829,17.898167 20.5356415,16.5478615 C22.3543788,14.796334 23.4867617,12.3543788 23.4867617,9.66191446 C23.4867617,4.33401222 19.0631365,0 13.6232179,0 C10.8737271,0 8.38492872,1.10794297 6.59470468,2.89205703 C4.84317719,4.63543788 3.76171079,7.02647658 3.76171079,9.66191446 C3.76171079,14.3543788 7.19551935,18.2749491 11.7291242,19.1425662 L11.7291242,23.2423625 C8.7311609,23.6415479 6.0407332,25.00611 3.99389002,27.00611 C1.52749491,29.4114053 0,32.7413442 0,36.4154786 C0,43.7494908 6.09164969,49.712831 13.5743381,49.712831 C17.3238289,49.712831 20.7230143,48.2158859 23.1812627,45.8004073 C25.6334012,43.395112 27.1486762,40.0753564 27.1486762,36.4154786 C27.1486762,35.0468432 26.9368635,33.7270876 26.5437882,32.4847251 L32.3869654,29.2973523 C34.4725051,31.8533605 37.6782077,33.4928717 41.2708758,33.4928717 C41.7169043,33.4928717 42.1568228,33.4663951 42.5906314,33.4175153 L45.8065173,43.5274949 C45.3156823,43.8268839 44.8594705,44.1751527 44.4480652,44.5661914 C42.9551935,45.9898167 42.0244399,47.9796334 42.0244399,50.1751527 C42.0244399,54.4887984 45.6089613,58 50.01222,58 C52.2566191,58 54.2851324,57.0875764 55.7393075,55.6272912 C57.1384929,54.2158859 58,52.2912424 58,50.1751527 C58,45.8594705 54.4175153,42.3503055 50.01222,42.3503055 Z" id="Stroke-11"></path>
        </g>
    </g>
</svg>