<?xml version="1.0" encoding="UTF-8"?>
<svg width="60px" height="60px" viewBox="0 0 60 60" version="1.1" xmlns="http://www.w3.org/2000/svg" xmlns:xlink="http://www.w3.org/1999/xlink">
    <!-- Generator: Sketch 61.1 (89650) - https://sketch.com -->
    <title>i04w</title>
    <desc>Created with Sketch.</desc>
    <g id="i04w" stroke="none" stroke-width="1" fill="none" fill-rule="evenodd">
        <path d="M30.5066144,2 C30.8373358,2.00583996 31.1302604,2.21413203 31.2493201,2.52365015 C31.273888,2.58204979 34.0103711,8.90867798 50.1930399,8.90867798 C50.6371514,8.90867798 50.9962203,9.28438236 51,9.73795294 L51,9.73795294 L51,38.0890338 C51,49.6949899 31.6499654,58.5620027 30.8241069,58.9338137 C30.7220558,58.9824801 30.6067758,59 30.5009449,59 C30.3837751,59 30.2798341,58.9824801 30.1721134,58.9338137 C29.3538142,58.5620027 10,49.6949899 10,38.0890338 L10,38.0890338 L10,9.73795294 C10,9.28438236 10.3571791,8.90867798 10.8069601,8.90867798 C26.9272643,8.90867798 29.7242222,2.57426317 29.7450104,2.50807691 C29.8735192,2.20634541 30.1702236,2 30.4914957,2 L30.4914957,2 Z M43.4895925,18.4684818 C35.7098169,23.2644125 30.1009226,29.3213342 27.8246039,32.0137201 L21.9784754,27.4090207 C21.8222021,27.2973113 18.6138919,30.1619948 18.6986184,30.252877 L29.3459153,41.1379168 C29.4249934,41.2269057 29.5323136,41.2666667 29.6490479,41.2666667 C29.6697588,41.2666667 29.7017666,41.2666667 29.7300088,41.2590931 C29.8693368,41.2287991 29.9879539,41.1341301 30.0387898,40.9921266 C31.7559135,36.5824453 37.4194094,27.3503259 44.6512869,20.6553353 C44.7812009,20.5322656 44.8245056,20.3391409 44.7548415,20.1744169 C44.7529587,20.1725235 43.5969127,18.4022135 43.4895925,18.4684818 Z" id="Combined-Shape-Copy-8" stroke="#82A1A7" fill="#FFFFFF"></path>
    </g>
</svg>